{"title":"Teresa.el.cuerpo.de.Cristo.2007.DVDRip.x264.AC3.Spa.MultiSub-E76","uid":6445062,"size":2033052331,"categoryP":"video","categoryS":"movies","magnet":"?xt=urn:btih:8533f13ed2661827669ab08664f94280dc529a90&amp;dn=Teresa.el.cuerpo.de.Cristo.2007.DVDRip.x264.AC3.Spa.MultiSub-E76&amp;tr=udp%3A%2F%2Ftracker.openbittorrent.com%3A80&amp;tr=udp%3A%2F%2Fopen.demonii.com%3A1337&amp;tr=udp%3A%2F%2Ftracker.coppersurfer.tk%3A6969&amp;tr=udp%3A%2F%2Fexodus.desync.com%3A6969","seeders":1,"leechers":0,"uploader":"Enclave76","files":1,"time":1307109124,"description":"General\nComplete name: Teresa.el.cuerpo.de.Cristo.2007.DVDRip.x264.AC3.Spa.MultiSub-E76.mkv\nFormat                           : Matroska\nFile size                        : 1.89 GiB\nDuration                         : 1h 32mn\nOverall bit rate                 : 2 932 Kbps\n\nVideo\nID                               : 1\nFormat                           : AVC\nFormat profile                   : &lt;a class=&quot;__cf_email__&quot; href=&quot;/cdn-cgi/l/email-protection&quot; data-cfemail=&quot;450d2c222d0509716b74&quot;&gt;[email&amp;#160;protected]&lt;/a&gt;&lt;script cf-hash='f9e31' type=&quot;text/javascript&quot;&gt;\n/* &lt;![CDATA[ */!function(){try{var t=&quot;currentScript&quot;in document?document.currentScript:function(){for(var t=document.getElementsByTagName(&quot;script&quot;),e=t.length;e--;)if(t[e].getAttribute(&quot;cf-hash&quot;))return t[e]}();if(t&amp;&amp;t.previousSibling){var e,r,n,i,c=t.previousSibling,a=c.getAttribute(&quot;data-cfemail&quot;);if(a){for(e=&quot;&quot;,r=parseInt(a.substr(0,2),16),n=2;a.length-n;n+=2)i=parseInt(a.substr(n,2),16)^r,e+=String.fromCharCode(i);e=document.createTextNode(e),c.parentNode.replaceChild(e,c)}}}catch(u){}}();/* ]]&gt; */&lt;/script&gt;\nBit rate                         : 2 490 Kbps\nWidth                            : 706 pixels\nHeight                           : 552 pixels\nDisplay aspect ratio             : 16:9\nOriginal display aspect ratio    : 1.850\nFrame rate                       : 25.000 fps\nScan type                        : Progressive\nBits/(Pixel*Frame)               : 0.256\nStream size                      : 1.57 GiB (83%)\n\nAudio\nID                               : 2\nFormat                           : AC-3\nDuration                         : 1h 32mn\nBit rate mode                    : Constant\nBit rate                         : 448 Kbps\nChannel(s)                       : 6 channels\nChannel positions                : Front: L C R, Side: L R, LFE\nSampling rate                    : 48.0 KHz\nBit depth                        : 16 bits\nCompression mode                 : Lossy\nStream size                      : 296 MiB (15%)\nTitle                            : Original\nLanguage                         : Spanish\n\nSubtitles: Russian (MMManja), English, Romanian, Slovak, Brazilian (port)","torrent":{"xt":"urn:btih:8533f13ed2661827669ab08664f94280dc529a90","amp;dn":"Teresa.el.cuerpo.de.Cristo.2007.DVDRip.x264.AC3.Spa.MultiSub-E76","amp;tr":["udp%3A%2F%2Ftracker.openbittorrent.com%3A80","udp%3A%2F%2Fopen.demonii.com%3A1337","udp%3A%2F%2Ftracker.coppersurfer.tk%3A6969","udp%3A%2F%2Fexodus.desync.com%3A6969"],"infoHash":"8533f13ed2661827669ab08664f94280dc529a90","infoHashBuffer":{"type":"Buffer","data":[133,51,241,62,210,102,24,39,102,154,176,134,100,249,66,128,220,82,154,144]},"announce":[],"urlList":[]}}